<?xml version="1.0" standalone="no"?>
<!DOCTYPE svg PUBLIC "-//W3C//DTD SVG 20010904//EN"
 "http://www.w3.org/TR/2001/REC-SVG-20010904/DTD/svg10.dtd">
<svg version="1.0" xmlns="http://www.w3.org/2000/svg"
 width="450.000000pt" height="450.000000pt" viewBox="0 0 450.000000 450.000000"
 preserveAspectRatio="xMidYMid meet">
<metadata>
Created by potrace 1.11, written by Peter Selinger 2001-2013
</metadata>
<g transform="translate(0.000000,450.000000) scale(0.100000,-0.100000)"
fill="#000000" stroke="none">
<path d="M2541 4464 c-17 -22 -21 -41 -21 -110 0 -83 0 -84 -27 -89 -134 -29
-309 -100 -417 -169 l-59 -38 -66 66 c-96 95 -96 95 -248 -57 -153 -153 -154
-157 -59 -255 l64 -67 -49 -85 c-58 -99 -102 -210 -133 -330 l-22 -85 -99 -3
c-141 -4 -135 6 -135 -217 0 -225 -6 -215 138 -215 l101 0 11 -42 c39 -152 89
-272 167 -401 l35 -58 -71 -74 c-46 -47 -71 -81 -71 -96 0 -15 39 -62 127
-151 158 -159 157 -159 259 -57 l71 71 79 -46 c98 -57 225 -108 326 -132 l78
-19 0 -96 c0 -82 3 -100 21 -123 l20 -26 183 0 c225 0 214 -7 218 139 l3 103
91 24 c105 27 247 86 335 139 l61 38 61 -61 c61 -59 94 -82 118 -82 7 0 70 57
141 127 158 157 158 158 63 253 -36 35 -65 67 -65 71 0 4 19 38 41 75 65 107
119 239 156 384 l9 35 94 3 c136 4 130 -5 130 217 0 222 4 215 -123 215 -48 0
-89 5 -92 10 -4 6 -18 51 -31 101 -30 112 -70 211 -129 313 l-45 79 65 68 c92
95 92 95 -59 247 -153 155 -157 156 -250 63 l-63 -63 -89 54 c-103 62 -217
109 -338 140 l-86 21 0 89 c0 131 4 128 -219 128 l-180 0 -20 -26z m367 -780
c221 -55 405 -233 480 -462 29 -91 36 -261 14 -352 -23 -93 -95 -229 -157
-298 -270 -297 -707 -309 -991 -27 -68 68 -90 97 -127 176 -101 209 -101 402
0 608 119 243 377 392 646 375 43 -3 104 -12 135 -20z"/>
<path d="M2625 3256 c-93 -44 -145 -126 -145 -231 0 -146 110 -256 255 -256
73 0 117 16 170 62 108 96 113 283 9 381 -75 70 -196 88 -289 44z"/>
<path d="M817 2146 c-109 -45 -113 -50 -88 -113 l20 -51 -37 -25 c-46 -31
-107 -89 -153 -146 l-36 -43 -50 18 c-27 9 -56 15 -64 12 -18 -7 -93 -184 -86
-203 4 -8 29 -26 57 -40 41 -21 50 -30 44 -43 -5 -9 -9 -79 -9 -156 l0 -138
-45 -18 c-24 -9 -49 -24 -54 -32 -11 -18 46 -171 75 -202 18 -19 19 -19 75 3
l57 21 15 -22 c8 -13 56 -63 107 -113 l92 -90 -19 -40 c-32 -71 -25 -83 79
-128 51 -21 100 -37 108 -33 9 3 26 27 38 54 l22 48 154 -1 154 -2 22 -50 c13
-27 29 -52 36 -55 8 -3 57 11 109 31 107 42 114 52 86 122 -9 22 -16 43 -16
48 0 5 29 32 64 60 35 28 81 74 102 101 21 28 43 50 50 50 6 0 33 -9 59 -21
59 -26 64 -22 111 87 47 107 46 114 -22 147 -45 22 -54 31 -48 45 4 9 9 78 10
152 l1 134 46 19 c25 10 48 26 52 35 7 20 -65 203 -83 210 -8 3 -37 -3 -65
-13 -46 -17 -50 -17 -59 -1 -22 40 -111 137 -153 167 -25 18 -45 34 -45 37 0
2 8 26 17 53 12 34 15 54 8 65 -12 19 -160 84 -190 84 -16 0 -28 -13 -45 -51
-22 -46 -26 -50 -49 -42 -15 4 -86 8 -160 8 l-134 0 -17 45 c-22 57 -40 59
-143 16z m448 -417 c112 -42 211 -152 236 -264 19 -87 8 -199 -29 -271 -38
-76 -108 -146 -181 -182 -50 -24 -67 -27 -161 -27 -95 0 -111 3 -167 29 -73
33 -164 122 -193 188 -65 150 -35 324 77 436 112 112 271 146 418 91z"/>
<path d="M1064 1500 c-11 -4 -34 -24 -52 -44 -103 -118 52 -298 186 -216 126
77 76 271 -69 269 -24 0 -53 -4 -65 -9z"/>
<path d="M2540 1115 c0 -300 2 -314 57 -351 39 -26 147 -26 186 0 50 34 57 61
57 218 0 126 -3 147 -20 176 -37 60 -124 79 -193 42 l-37 -20 0 105 0 105 -25
0 -25 0 0 -275z m195 40 c47 -19 55 -45 55 -176 0 -152 -15 -179 -100 -179
-85 0 -100 27 -100 182 0 122 9 155 50 175 33 17 53 16 95 -2z"/>
<path d="M4028 1323 c-14 -4 -18 -15 -18 -59 l0 -54 -40 0 c-36 0 -40 -3 -40
-24 0 -21 5 -25 38 -28 l37 -3 5 -167 5 -168 32 -31 c24 -25 42 -33 82 -37
l51 -5 0 32 c0 29 -2 31 -38 31 -67 0 -72 14 -72 193 l0 157 55 0 c52 0 55 1
55 25 0 24 -3 25 -55 25 l-55 0 0 60 c0 61 -2 64 -42 53z"/>
<path d="M2203 1205 c-55 -24 -95 -114 -57 -129 26 -10 34 -7 34 13 0 11 11
33 24 48 20 23 32 28 69 28 65 0 97 -32 97 -97 l0 -48 -67 0 c-116 0 -178 -49
-178 -140 0 -57 24 -96 76 -123 42 -22 111 -16 152 14 l29 21 14 -21 c9 -12
19 -21 25 -21 5 0 9 73 9 178 0 199 -7 228 -69 269 -40 27 -108 30 -158 8z
m167 -297 c0 -83 -22 -108 -94 -108 -37 0 -55 5 -73 22 -30 28 -31 85 -2 122
19 24 26 26 95 26 l74 0 0 -62z"/>
<path d="M3035 1206 c-39 -17 -63 -45 -75 -87 -7 -24 -6 -35 3 -41 23 -14 47
-9 47 11 0 11 11 33 24 48 20 23 32 28 71 28 62 0 95 -35 95 -101 l0 -44 -67
0 c-119 -1 -183 -50 -183 -140 0 -114 135 -178 231 -109 l28 20 13 -21 c7 -11
16 -20 20 -20 5 0 8 87 8 194 0 183 -1 195 -22 221 -40 51 -128 70 -193 41z
m165 -296 c0 -51 -4 -65 -25 -85 -33 -34 -108 -35 -142 -3 -31 29 -32 92 -1
125 19 20 31 23 95 23 l73 0 0 -60z"/>
<path d="M3322 1198 c3 -7 38 -111 78 -231 58 -175 75 -217 88 -215 12 2 31
49 66 166 28 89 53 162 56 162 4 0 29 -73 57 -162 34 -112 55 -164 65 -166 12
-2 32 46 88 215 40 120 75 224 78 231 3 8 -6 12 -25 12 -29 0 -29 -2 -78 -157
-26 -87 -51 -164 -55 -171 -3 -7 -16 18 -27 55 -12 38 -36 114 -54 171 -45
145 -53 141 -114 -55 -27 -87 -51 -164 -55 -171 -3 -7 -31 64 -60 157 -54 170
-54 171 -83 171 -19 0 -28 -4 -25 -12z"/>
<path d="M692 159 c3 -145 10 -159 73 -159 58 0 66 15 63 110 -3 81 -4 85 -30
97 -18 10 -34 10 -52 3 -26 -9 -26 -9 -26 35 0 34 -4 45 -16 45 -14 0 -15 -17
-12 -131z m106 19 c18 -18 15 -123 -4 -142 -18 -19 -28 -20 -55 -6 -16 9 -19
22 -19 73 0 67 10 87 45 87 12 0 26 -5 33 -12z"/>
<path d="M1976 268 c-9 -12 -16 -30 -16 -40 0 -10 -7 -18 -15 -18 -8 0 -15 -4
-15 -10 0 -5 7 -10 15 -10 12 0 15 -17 15 -95 0 -78 3 -95 15 -95 12 0 15 17
15 95 0 95 0 95 25 95 14 0 25 5 25 10 0 6 -12 10 -26 10 -21 0 -25 4 -22 23
2 12 13 26 26 32 29 13 28 25 -2 25 -14 0 -32 -10 -40 -22z"/>
<path d="M2190 275 c0 -8 7 -15 15 -15 8 0 15 7 15 15 0 8 -7 15 -15 15 -8 0
-15 -7 -15 -15z"/>
<path d="M3030 275 c0 -8 7 -15 15 -15 8 0 15 7 15 15 0 8 -7 15 -15 15 -8 0
-15 -7 -15 -15z"/>
<path d="M3260 145 c0 -122 2 -145 15 -145 12 0 15 16 15 83 0 88 8 107 47
107 32 0 43 -28 43 -114 0 -44 4 -76 10 -76 15 0 13 172 -3 194 -13 17 -65 25
-86 12 -8 -5 -11 7 -11 38 0 34 -4 46 -15 46 -13 0 -15 -23 -15 -145z"/>
<path d="M4060 145 c0 -122 2 -145 15 -145 12 0 15 16 15 83 0 87 8 107 45
107 37 0 45 -20 45 -107 0 -51 4 -83 10 -83 7 0 10 35 8 97 -3 95 -4 98 -30
110 -18 10 -34 10 -52 3 -26 -9 -26 -9 -26 35 0 33 -4 45 -15 45 -13 0 -15
-23 -15 -145z"/>
<path d="M1090 235 c0 -18 -5 -25 -20 -25 -11 0 -20 -4 -20 -10 0 -5 9 -10 20
-10 18 0 20 -7 20 -79 0 -71 2 -82 22 -95 12 -9 30 -16 40 -16 26 0 22 28 -4
32 -21 3 -23 9 -26 81 -3 77 -3 77 23 77 14 0 25 5 25 10 0 6 -11 10 -25 10
-20 0 -25 5 -25 25 0 16 -6 25 -15 25 -9 0 -15 -9 -15 -25z"/>
<path d="M1240 235 c0 -18 -5 -25 -20 -25 -11 0 -20 -4 -20 -9 0 -5 9 -11 20
-14 18 -5 20 -14 20 -86 0 -69 3 -82 19 -91 28 -14 51 -12 51 4 0 8 -10 16
-22 18 -22 3 -23 8 -23 78 0 70 1 75 23 78 30 5 28 22 -3 22 -20 0 -25 5 -25
25 0 14 -4 25 -10 25 -5 0 -10 -11 -10 -25z"/>
<path d="M3140 235 c0 -18 -5 -25 -20 -25 -11 0 -20 -4 -20 -10 0 -5 9 -10 20
-10 18 0 20 -7 20 -79 0 -71 2 -82 22 -95 12 -9 30 -16 40 -16 26 0 22 28 -4
32 -21 3 -23 9 -26 81 -3 77 -3 77 23 77 14 0 25 5 25 10 0 6 -11 10 -25 10
-20 0 -25 5 -25 25 0 16 -6 25 -15 25 -9 0 -15 -9 -15 -25z"/>
<path d="M3560 235 c0 -16 -6 -25 -15 -25 -8 0 -15 -4 -15 -10 0 -5 7 -10 15
-10 12 0 15 -15 15 -75 0 -81 18 -115 60 -115 28 0 25 28 -2 32 -21 3 -23 9
-26 81 -3 77 -3 77 23 77 14 0 25 5 25 10 0 6 -11 10 -25 10 -20 0 -25 5 -25
25 0 16 -6 25 -15 25 -9 0 -15 -9 -15 -25z"/>
<path d="M460 213 c-24 -9 -50 -35 -50 -50 0 -20 20 -16 39 9 14 16 24 19 44
14 22 -5 27 -12 27 -36 0 -28 -2 -30 -38 -30 -64 0 -97 -64 -54 -103 21 -19
77 -23 87 -7 5 8 11 7 21 -1 22 -18 20 163 -2 185 -8 9 -19 16 -24 16 -5 0
-14 2 -22 4 -7 3 -20 2 -28 -1z m58 -144 c-4 -39 -30 -59 -55 -43 -10 6 -20
19 -21 28 -7 32 6 46 43 46 35 0 36 -1 33 -31z"/>
<path d="M930 212 c-39 -12 -50 -34 -50 -101 0 -85 16 -111 69 -111 40 0 71
23 71 53 0 23 -9 21 -32 -8 -33 -43 -78 -27 -78 27 0 27 1 28 55 28 l55 0 0
38 c0 21 -6 45 -12 54 -14 17 -55 27 -78 20z m60 -43 c19 -34 5 -51 -37 -47
-27 2 -39 8 -41 21 -9 44 57 66 78 26z"/>
<path d="M1406 209 c-40 -11 -46 -23 -46 -105 0 -82 15 -104 72 -104 37 0 68
24 68 53 0 25 -24 21 -35 -5 -20 -46 -75 -29 -75 23 0 28 1 29 55 29 l55 0 0
38 c0 20 -4 42 -8 49 -12 20 -55 31 -86 22z m48 -25 c10 -4 16 -18 16 -35 0
-27 -3 -29 -40 -29 -38 0 -40 2 -40 29 0 36 26 50 64 35z"/>
<path d="M1592 209 c-13 -5 -28 -7 -33 -3 -5 3 -9 -40 -9 -100 0 -64 4 -106
10 -106 6 0 10 33 10 78 0 64 4 82 18 95 10 10 24 17 30 17 7 0 12 7 12 15 0
17 -5 18 -38 4z"/>
<path d="M1810 213 c-24 -9 -50 -35 -50 -50 0 -20 20 -16 39 9 14 16 24 19 44
14 22 -5 27 -12 27 -36 0 -28 -2 -30 -38 -30 -64 0 -97 -64 -54 -103 21 -19
77 -23 87 -7 5 8 11 7 21 -1 22 -18 20 163 -2 185 -8 9 -19 16 -24 16 -5 0
-14 2 -22 4 -7 3 -20 2 -28 -1z m58 -144 c-4 -39 -30 -59 -55 -43 -10 6 -20
19 -21 28 -7 32 6 46 43 46 35 0 36 -1 33 -31z"/>
<path d="M2112 209 c-13 -5 -28 -7 -33 -3 -5 3 -9 -40 -9 -100 0 -64 4 -106
10 -106 6 0 10 33 10 78 0 64 4 82 18 95 10 10 24 17 30 17 7 0 12 7 12 15 0
17 -5 18 -38 4z"/>
<path d="M2309 206 c-22 -10 -24 -19 -27 -93 -3 -95 7 -113 68 -113 29 0 43 6
54 22 20 28 20 48 1 48 -8 0 -15 -7 -15 -15 0 -14 -29 -35 -49 -35 -5 0 -17 7
-25 16 -20 19 -22 112 -3 138 18 24 59 17 72 -11 11 -25 35 -31 35 -9 0 43
-67 74 -111 52z"/>
<path d="M2499 206 c-13 -6 -25 -22 -27 -34 -4 -27 14 -29 28 -2 21 39 80 19
80 -27 0 -20 -5 -23 -44 -23 -51 0 -69 -17 -69 -62 0 -42 26 -59 85 -56 l48 3
0 91 c0 62 -4 95 -13 102 -20 17 -62 21 -88 8z m81 -130 c0 -25 -23 -56 -41
-56 -22 0 -49 22 -49 38 0 27 20 42 57 42 28 0 33 -3 33 -24z"/>
<path d="M3719 206 c-22 -10 -24 -19 -27 -93 -3 -95 7 -113 68 -113 29 0 43 6
54 22 20 28 20 48 1 48 -8 0 -15 -7 -15 -15 0 -14 -29 -35 -49 -35 -18 0 -41
31 -41 55 0 22 4 24 58 27 56 3 57 4 60 34 6 57 -56 97 -109 70z m74 -37 c17
-28 1 -49 -38 -49 -40 0 -53 17 -35 50 13 25 57 24 73 -1z"/>
<path d="M3912 209 c-31 -12 -44 -53 -40 -123 5 -65 22 -86 71 -86 42 0 67 17
67 45 0 30 -16 33 -25 6 -8 -25 -38 -35 -65 -21 -17 9 -20 21 -20 74 0 70 13
90 52 84 13 -2 27 -13 33 -25 13 -30 25 -29 25 1 0 40 -50 63 -98 45z"/>
<path d="M2190 105 c0 -87 3 -105 15 -105 12 0 15 18 15 105 0 87 -3 105 -15
105 -12 0 -15 -18 -15 -105z"/>
<path d="M2769 105 c20 -58 39 -105 43 -105 4 0 18 35 31 78 l24 77 24 -77
c13 -43 28 -76 33 -75 8 3 36 78 71 188 4 13 2 19 -8 19 -10 0 -23 -25 -37
-71 -12 -40 -25 -68 -29 -63 -4 5 -16 37 -26 72 -10 34 -23 61 -29 59 -6 -2
-20 -34 -30 -70 -11 -37 -23 -67 -26 -67 -3 0 -15 30 -26 67 -12 43 -25 69
-35 71 -13 2 -9 -17 20 -103z"/>
<path d="M3040 105 c0 -63 4 -105 10 -105 6 0 10 42 10 105 0 63 -4 105 -10
105 -6 0 -10 -42 -10 -105z"/>
</g>
</svg>
